<svg width="16" height="16" viewBox="0 0 16 16" fill="none" xmlns="http://www.w3.org/2000/svg" aria-hidden="true">
<path fill-rule="evenodd" clip-rule="evenodd" d="M14.7265 1.29289C15.117 1.68342 15.117 2.31658 14.7265 2.70711L2.70567 14.7279C2.31515 15.1184 1.68198 15.1184 1.29146 14.7279C0.900934 14.3374 0.900934 13.7042 1.29146 13.3137L13.3123 1.29289C13.7028 0.902369 14.336 0.902369 14.7265 1.29289Z" fill="#1A1A1A"/>
<path fill-rule="evenodd" clip-rule="evenodd" d="M14.7266 14.7279C14.3361 15.1184 13.7029 15.1184 13.3124 14.7279L1.29161 2.70711C0.901084 2.31658 0.901084 1.68342 1.29161 1.29289C1.68213 0.902369 2.3153 0.90237 2.70582 1.29289L14.7266 13.3137C15.1172 13.7042 15.1172 14.3374 14.7266 14.7279Z" fill="#1A1A1A"/>
</svg>
