<svg width="16" height="16" viewBox="0 0 16 16" fill="none" xmlns="http://www.w3.org/2000/svg" aria-hidden="true">
<path d="M9 1C9 0.447715 8.55228 0 8 0C7.44772 0 7 0.447715 7 1V10.0097L4.09689 7.84985C3.65379 7.5202 3.02734 7.61217 2.69768 8.05528C2.36802 8.49839 2.46 9.12484 2.90311 9.45449L7.40311 12.8023C7.75739 13.0659 8.24261 13.0659 8.5969 12.8023L13.0969 9.45449C13.54 9.12484 13.632 8.49839 13.3023 8.05528C12.9727 7.61217 12.3462 7.5202 11.9031 7.84985L9 10.0097V1Z" fill="#1A1A1A"/>
<path d="M1 14C0.447715 14 0 14.4477 0 15C0 15.5523 0.447715 16 1 16H15C15.5523 16 16 15.5523 16 15C16 14.4477 15.5523 14 15 14H1Z" fill="#1A1A1A"/>
</svg>
