<svg width="16" height="16" viewBox="0 0 16 16" fill="none" xmlns="http://www.w3.org/2000/svg" aria-hidden="true">
<g clip-path="url(#clip0_1309_801)">
<path fill-rule="evenodd" clip-rule="evenodd" d="M14.0208 1C14.5731 1 15.0208 1.44772 15.0208 2L15.0208 11C15.0208 11.5523 14.5731 12 14.0208 12C13.4686 12 13.0208 11.5523 13.0208 11L13.0208 4.41421L2.70714 14.7279C2.31661 15.1184 1.68345 15.1184 1.29292 14.7279C0.902399 14.3374 0.902399 13.7042 1.29292 13.3137L11.6066 3L5.02085 3C4.46856 3 4.02085 2.55228 4.02085 2C4.02084 1.44771 4.46856 1 5.02085 1L14.0208 1Z" fill="#1A1A1A"/>
</g>
<defs>
<clipPath id="clip0_1309_801">
<rect width="16" height="16" fill="white"/>
</clipPath>
</defs>
</svg>
